<svg width="20" height="35" viewBox="0 0 20 35" fill="none" xmlns="http://www.w3.org/2000/svg">
<path d="M1.93408 20.3248H5.60617V33.9048C5.60617 34.5085 6.09471 34.9985 6.69992 34.9985L12.5435 35C13.1487 35 13.6372 34.5085 13.6372 33.9062V20.3263H17.1182C17.6695 20.3263 18.1347 19.915 18.2032 19.3681L18.9295 13.5348C19.0112 12.8844 18.5022 12.3054 17.8445 12.3054H13.6372C13.802 8.70187 13.0028 7.63583 15.3464 7.63583C16.933 7.44625 19.4355 8.24979 19.4355 6.54208V1.32563C19.4355 0.77875 19.0316 0.316458 18.4905 0.242083C18.0326 0.179375 16.2228 0 13.9785 0C3.75554 0 5.85992 11.3342 5.60762 12.304H1.93408C1.33033 12.304 0.840332 12.794 0.840332 13.3977V19.231C0.840332 19.8348 1.33033 20.3248 1.93408 20.3248ZM3.02783 14.4929H6.69992C7.30367 14.4929 7.79366 14.0029 7.79366 13.3992V8.80396C7.79366 4.59958 10.0468 2.18896 13.977 2.18896C15.2574 2.18896 16.4357 2.25167 17.2466 2.31583V5.44979C16.6603 5.74875 11.4482 4.16062 11.4482 9.38292V13.4006C11.4482 14.0044 11.9382 14.4944 12.542 14.4944H16.6049L16.1499 18.1402H12.542C11.9382 18.1402 11.4482 18.6302 11.4482 19.234V32.8125H7.79512V19.2325C7.79512 18.6287 7.30512 18.1388 6.70137 18.1388H3.02783V14.4929Z" fill="#BE1E2D"/>
</svg>
