<svg width="20" height="22" viewBox="0 0 20 22" fill="none" xmlns="http://www.w3.org/2000/svg">
<path fill-rule="evenodd" clip-rule="evenodd" d="M10.4002 20.805C12.1143 19.9311 18.75 16.1354 18.75 9.75C18.75 4.91751 14.8325 1 10 1C5.16751 1 1.25 4.91751 1.25 9.75C1.25 16.1354 7.88566 19.9311 9.59979 20.805C9.85356 20.9344 10.1464 20.9344 10.4002 20.805ZM10 13.5C12.0711 13.5 13.75 11.8211 13.75 9.75C13.75 7.67893 12.0711 6 10 6C7.92893 6 6.25 7.67893 6.25 9.75C6.25 11.8211 7.92893 13.5 10 13.5Z" fill="white"/>
<path d="M10.4002 20.805L10.1277 20.2705H10.1277L10.4002 20.805ZM9.59979 20.805L9.87233 20.2705H9.87233L9.59979 20.805ZM18.15 9.75C18.15 12.7213 16.6077 15.1223 14.7956 16.9181C12.9846 18.7128 10.9582 19.847 10.1277 20.2705L10.6727 21.3396C11.5563 20.889 13.7048 19.6885 15.6402 17.7705C17.5745 15.8536 19.35 13.1641 19.35 9.75H18.15ZM10 1.6C14.5011 1.6 18.15 5.24888 18.15 9.75H19.35C19.35 4.58614 15.1639 0.4 10 0.4V1.6ZM1.85 9.75C1.85 5.24888 5.49888 1.6 10 1.6V0.4C4.83614 0.4 0.65 4.58614 0.65 9.75H1.85ZM9.87233 20.2705C9.04178 19.847 7.0154 18.7128 5.20444 16.9181C3.39234 15.1223 1.85 12.7213 1.85 9.75H0.65C0.65 13.1641 2.42549 15.8536 4.35975 17.7705C6.29516 19.6885 8.44366 20.889 9.32726 21.3396L9.87233 20.2705ZM10.1277 20.2705C10.0451 20.3126 9.95489 20.3126 9.87233 20.2705L9.32725 21.3396C9.75223 21.5562 10.2478 21.5562 10.6727 21.3396L10.1277 20.2705ZM13.15 9.75C13.15 11.4897 11.7397 12.9 10 12.9V14.1C12.4024 14.1 14.35 12.1524 14.35 9.75H13.15ZM10 6.6C11.7397 6.6 13.15 8.0103 13.15 9.75H14.35C14.35 7.34756 12.4024 5.4 10 5.4V6.6ZM6.85 9.75C6.85 8.0103 8.2603 6.6 10 6.6V5.4C7.59756 5.4 5.65 7.34756 5.65 9.75H6.85ZM10 12.9C8.2603 12.9 6.85 11.4897 6.85 9.75H5.65C5.65 12.1524 7.59756 14.1 10 14.1V12.9Z" fill="#BE1E2D"/>
</svg>
