<svg width="39" height="39" viewBox="0 0 39 39" fill="none" xmlns="http://www.w3.org/2000/svg">
<g clip-path="url(#clip0_30_77)">
<path d="M30.2088 38.9999C30.3762 38.9999 37.9471 38.9983 37.7813 38.9983C38.4541 38.9983 39.0001 38.4523 39.0001 37.7796C38.4313 25.0119 41.9933 11.5391 28.7008 11.5391C26.1447 11.5391 24.1086 12.4117 22.6412 13.5654C22.6412 11.1913 20.0753 12.5043 14.1522 12.1517C13.4794 12.1517 12.9334 12.6977 12.9334 13.3704C13.4242 36.3902 11.8382 38.9983 14.1522 38.9983H21.7247C23.9233 38.9983 22.5242 35.8978 22.9434 25.6928C22.9434 21.4776 24.1622 20.6521 26.2682 20.6521C28.5984 20.6521 28.9901 22.2706 28.9901 25.8976C29.4077 35.9189 28.0183 38.9999 30.2088 38.9999ZM26.2682 18.2146C18.9703 18.2146 20.5059 26.2388 20.5059 36.5608H15.3709V14.5892H20.2037V16.6984C20.2037 17.8684 21.9863 18.4437 22.6071 17.2672C23.4066 15.7494 25.4833 13.9766 28.7008 13.9766C34.4322 13.9766 36.5626 16.7927 36.5626 24.3701V36.5624H31.4276C31.4276 24.9534 32.6561 18.2146 26.2682 18.2146Z" fill="#BE1E2D"/>
<path d="M1.82315 12.1533C-0.484354 12.1533 1.09515 14.7289 0.604396 37.7811C0.604396 38.4539 1.1504 38.9999 1.82315 38.9999H9.40377C11.7113 38.9999 10.1318 36.4243 10.6225 13.372C10.6225 11.2676 7.5659 12.5091 1.82315 12.1533ZM8.18502 36.5624H3.0419V14.5908H8.18502V36.5624Z" fill="#BE1E2D"/>
<path d="M5.60951 0C-1.82649 0 -1.78099 11.2596 5.60951 11.2596C12.9951 11.2596 13.0536 0 5.60951 0ZM5.60951 8.82212C1.43651 8.82212 1.39751 2.4375 5.60951 2.4375C9.82964 2.4375 9.77601 8.82212 5.60951 8.82212Z" fill="#BE1E2D"/>
</g>
<defs>
<clipPath id="clip0_30_77">
<rect width="39" height="39" fill="white"/>
</clipPath>
</defs>
</svg>
