<svg width="20" height="20" viewBox="0 0 20 20" fill="none" xmlns="http://www.w3.org/2000/svg">
<path d="M13.3334 6.66667V5.83333C13.3334 3.99239 11.841 2.5 10.0001 2.5V2.5C8.15913 2.5 6.66675 3.99239 6.66675 5.83333V6.66667" stroke="#BE1E2D" stroke-width="2" stroke-linecap="round"/>
<path fill-rule="evenodd" clip-rule="evenodd" d="M3.05332 7.09733C2.5 7.87716 2.5 8.9816 2.5 11.1905C2.5 14.1357 2.5 15.6083 3.23776 16.648C3.49808 17.0149 3.81843 17.3353 4.18531 17.5956C5.22509 18.3333 6.69768 18.3333 9.64286 18.3333H10.3571C13.3023 18.3333 14.7749 18.3333 15.8147 17.5956C16.1816 17.3353 16.5019 17.0149 16.7622 16.648C17.5 15.6083 17.5 14.1357 17.5 11.1905C17.5 8.9816 17.5 7.87716 16.9467 7.09733C16.7514 6.82216 16.5112 6.5819 16.236 6.38666C15.4562 5.83334 14.3517 5.83334 12.1429 5.83334H7.85714C5.64826 5.83334 4.54381 5.83334 3.76399 6.38666C3.48882 6.5819 3.24856 6.82216 3.05332 7.09733ZM10 12.1667C10.2761 12.1667 10.5 11.9428 10.5 11.6667C10.5 11.3905 10.2761 11.1667 10 11.1667C9.72386 11.1667 9.5 11.3905 9.5 11.6667C9.5 11.9428 9.72386 12.1667 10 12.1667ZM12.5 11.6667C12.5 12.6918 11.883 13.5729 11 13.9587V15.8333H9V13.9587C8.11705 13.5729 7.5 12.6918 7.5 11.6667C7.5 10.286 8.61929 9.16668 10 9.16668C11.3807 9.16668 12.5 10.286 12.5 11.6667Z" fill="#BE1E2D"/>
</svg>
