<svg width="35" height="29" viewBox="0 0 35 29" fill="none" xmlns="http://www.w3.org/2000/svg">
<path d="M0.689775 25.5762C3.93019 27.6324 7.70144 28.7189 11.5952 28.7189C17.2973 28.7189 22.5225 26.5285 26.3098 22.5516C29.9337 18.7454 31.9273 13.631 31.8281 8.44077C33.2019 7.26535 34.8177 5.02098 34.8177 2.83348C34.8177 1.99494 33.9077 1.46265 33.1698 1.88994C31.8792 2.64827 30.7023 2.84661 29.4919 2.50681C27.02 0.0976475 23.3406 -0.409853 20.2402 1.2614C17.5306 2.71973 16.0242 5.38848 16.1598 8.30515C11.5821 7.7466 7.3529 5.45119 4.40415 1.88411C3.91998 1.30223 3.00123 1.37077 2.61623 2.02994C1.19582 4.46244 1.2104 7.2814 2.44561 9.55785C1.8579 9.6614 1.49478 10.1558 1.49478 10.691C1.49478 12.9791 2.52436 15.082 4.18248 16.517C3.87332 16.8145 3.77123 17.2564 3.90248 17.6501C4.63165 19.8406 6.28248 21.5526 8.34603 22.4101C6.10165 23.482 3.61957 23.8393 1.41019 23.5681C0.266859 23.4135 -0.297516 24.9506 0.689775 25.5762ZM11.8942 22.7849C12.7123 22.1564 12.2777 20.8468 11.251 20.8249C9.44269 20.787 7.79623 19.896 6.77103 18.4945C7.2654 18.4624 7.77728 18.3866 8.26436 18.2554C9.37415 17.9549 9.32165 16.3537 8.19436 16.1276C6.14832 15.7164 4.54269 14.226 3.9404 12.3068C4.49019 12.4424 5.05019 12.5183 5.60873 12.5285C6.71561 12.5343 7.13415 11.1154 6.23144 10.5218C4.19707 9.1816 3.32936 6.81473 3.90394 4.58931C7.45644 8.18848 12.2762 10.357 17.3746 10.602C18.1052 10.6472 18.6535 9.96035 18.4931 9.26473C17.8004 6.26202 19.4775 4.15765 21.2785 3.18786C23.0606 2.22536 25.9219 1.92494 28.1152 4.22619C28.7671 4.91306 30.9662 4.93931 32.0848 4.67827C31.5831 5.62327 30.8117 6.52015 30.0898 7.02473C29.7821 7.24056 29.6056 7.59931 29.6246 7.9741C29.8594 12.7647 28.0744 17.5276 24.7275 21.0408C21.3558 24.5801 16.6935 26.5299 11.5967 26.5299C9.56957 26.5299 7.58186 26.2004 5.70353 25.5645C7.94936 25.1299 10.0829 24.1791 11.8942 22.7849Z" fill="#BE1E2D"/>
</svg>
